# xmcd
# 
# Track frame offsets:
#     150
#     19526
#     38033
#     51829
#     71559
#     91378
#     110211
#     121372
#     139397
#     150975
#     171590
#     190739
#     207557
# 
# Disc length: 2989
# 
# Revision: 0
# Processed by: cddbd v1.5.2PL0 Copyright (c) Steve Scherf et al.
# Submitted via: fre:ac v1.0.17
# 
DISCID=bb0bab0d
DTITLE=Various Artist - LAISSE-MOI TE DIRE
DYEAR=2015
DGENRE=Country
TTITLE0=PAUL DARAÎCHE et GINETTE RENO - OÙ SERONS-NOUS DEMAIN (en duo avec Ginette Reno)
TTITLE1=PAUL DARAÎCHE et PETULA CLARK - LAISSE-MOI TE DIRE (en duo avec Petula Clark)
TTITLE2=PAUL DARAÎCHE et ZACHARY RICHARD - LA MÊME RENGAINE (en duo avec Zachary Richard)
TTITLE3=PAUL DARAÎCHE et PATRICE MICHAUD - LE VIEUX GASPÉSIEN (en duo avec Patrice Michaud)
TTITLE4=PAUL DARAÎCHE et LES SOEURS BOULAY - RESTE AVEC MOI (en duo avec les soeurs Boulay)
TTITLE5=PAUL DARAÎCHE et MARJO - DIS-LEUR DOUCEMENT (en duo avec Mario Pelchat)
TTITLE6=PAUL DARAÎCHE et DAVID THIBAULT - MON MÉTIER C'EST LA SCÈNE (en duo avec David Thibault)
TTITLE7=PAUL DARAÎCHE et CLAUDE MICHEL - JULIANA (en duo avec Claude Michel)
TTITLE8=PAUL DARAÎCHE et MARJO - SHOWTIME (en duo avec Marjo)
TTITLE9=PAUL DARAÎCHE et ADAMO - L'HYMNE À LA VIE (en duo avec Adamo)
TTITLE10=PAUL DARAÎCHE et ERIC LAPOINTE - LE BLUES DE L'ARTISTE (en duo avec Eric Lapointe)
TTITLE11=PAUL DARAÎCHE et KEVIN PARENT - MOI JE N'PENSAIS QU'À LA MUSIQUE (en duo avec Kevin Parent)
TTITLE12=PAUL DARAÎCHE - DANS TA ROBE BLANCHE
EXTD=
EXTT0=
EXTT1=
EXTT2=
EXTT3=
EXTT4=
EXTT5=
EXTT6=
EXTT7=
EXTT8=
EXTT9=
EXTT10=
EXTT11=
EXTT12=
PLAYORDER=
